<?xml version="1.0" encoding="UTF-8"?>
<svg version="1.1" xmlns="http://www.w3.org/2000/svg" width="128" height="128">
<path d="M0 0 C0.99 0.495 0.99 0.495 2 1 C2 1.33 2 1.66 2 2 C10.25 2.33 18.5 2.66 27 3 C32.07122076 13.14244152 33.98544712 22.97268174 35.1875 34.125 C35.3565909 35.60732617 35.52627235 37.0895851 35.6965332 38.57177734 C36.66854292 47.18212632 37.48427158 55.78221551 37.84765625 64.44140625 C38.00688609 68.16085203 38.314906 71.852857 38.625 75.5625 C39.28542418 85.53277476 39.97029735 96.07139883 35 105 C34.505 106.485 34.505 106.485 34 108 C25.44279239 108.86032967 17.04288045 109.09089851 8.44995117 108.875 C2.95200493 108.76168853 2.95200493 108.76168853 -2 111 C-2.33 111 -2.66 111 -3 111 C-5.06310088 111.28901198 -7.12570765 111.58068271 -9.1875 111.87890625 C-10.0846875 111.93884766 -10.0846875 111.93884766 -11 112 C-11.33 111.67 -11.66 111.34 -12 111 C-14.63330432 110.97062662 -17.23658684 111.0045978 -19.8671875 111.0859375 C-20.65771515 111.10717682 -21.4482428 111.12841614 -22.26272583 111.15029907 C-23.93905638 111.19665084 -25.61531715 111.24558606 -27.29150391 111.296875 C-29.85694928 111.37445415 -32.42251686 111.44173285 -34.98828125 111.5078125 C-36.6146011 111.55406701 -38.24090399 111.60092234 -39.8671875 111.6484375 C-40.63602264 111.66828705 -41.40485779 111.6881366 -42.19699097 111.70858765 C-45.36431486 111.81091144 -47.97504943 111.99168314 -51 113 C-51.99 112.505 -51.99 112.505 -53 112 C-56.54270847 111.92896825 -60.07443327 112.00333083 -63.6171875 112.0625 C-66.37352109 112.01157467 -68.38318857 111.68158809 -71 111 C-71.99 111.495 -71.99 111.495 -73 112 C-75 111.4375 -75 111.4375 -77 110 C-78.125 107.125 -78.125 107.125 -79 104 C-79.32742187 103.41347656 -79.65484375 102.82695313 -79.9921875 102.22265625 C-83.99045854 93.40476391 -83.33567684 80.6666484 -84.125 71.125 C-84.21265625 70.07997314 -84.3003125 69.03494629 -84.390625 67.95825195 C-84.84123778 62.23610557 -85.07175894 56.59868189 -84.93310547 50.85888672 C-84.78926287 48.98366392 -84.78926287 48.98366392 -86 48 C-86.24435961 43.72889013 -86.22861907 39.45165233 -86.24023438 35.17431641 C-86.24983664 33.03637218 -86.28079347 30.89943274 -86.3125 28.76171875 C-86.36925855 21.25111004 -85.95463458 14.96671733 -83 8 C-75.84527251 7.07023962 -68.67817563 6.28847615 -61.5 5.5625 C-60.84913422 5.49652618 -60.19826843 5.43055237 -59.52767944 5.36257935 C-45.379974 3.95140862 -31.20879164 3.27370867 -17.00390625 2.73461914 C-16.16824631 2.69962311 -15.33258636 2.66462708 -14.47160339 2.62857056 C-12.90136287 2.56291087 -11.33079199 2.50458317 -9.75996399 2.45492554 C-5.97933661 2.29151669 -3.29892649 1.83991008 0 0 Z M24 107 C28 108 28 108 28 108 Z " fill="#F8DC83" transform="translate(88,7)"/>
<path d="M0 0 C0.99 0.495 0.99 0.495 2 1 C2 1.33 2 1.66 2 2 C10.25 2.33 18.5 2.66 27 3 C32.07122076 13.14244152 33.98544712 22.97268174 35.1875 34.125 C35.3565909 35.60732617 35.52627235 37.0895851 35.6965332 38.57177734 C36.66854292 47.18212632 37.48427158 55.78221551 37.84765625 64.44140625 C38.00688609 68.16085203 38.314906 71.852857 38.625 75.5625 C39.28542418 85.53277476 39.97029735 96.07139883 35 105 C34.505 106.485 34.505 106.485 34 108 C25.44279239 108.86032967 17.04288045 109.09089851 8.44995117 108.875 C2.95200493 108.76168853 2.95200493 108.76168853 -2 111 C-2.33 111 -2.66 111 -3 111 C-5.06310088 111.28901198 -7.12570765 111.58068271 -9.1875 111.87890625 C-10.0846875 111.93884766 -10.0846875 111.93884766 -11 112 C-11.33 111.67 -11.66 111.34 -12 111 C-14.63330432 110.97062662 -17.23658684 111.0045978 -19.8671875 111.0859375 C-20.65771515 111.10717682 -21.4482428 111.12841614 -22.26272583 111.15029907 C-23.93905638 111.19665084 -25.61531715 111.24558606 -27.29150391 111.296875 C-29.85694928 111.37445415 -32.42251686 111.44173285 -34.98828125 111.5078125 C-36.6146011 111.55406701 -38.24090399 111.60092234 -39.8671875 111.6484375 C-40.63602264 111.66828705 -41.40485779 111.6881366 -42.19699097 111.70858765 C-45.36431486 111.81091144 -47.97504943 111.99168314 -51 113 C-51.99 112.505 -51.99 112.505 -53 112 C-56.54270847 111.92896825 -60.07443327 112.00333083 -63.6171875 112.0625 C-66.37352109 112.01157467 -68.38318857 111.68158809 -71 111 C-71.99 111.495 -71.99 111.495 -73 112 C-75 111.4375 -75 111.4375 -77 110 C-78.125 107.125 -78.125 107.125 -79 104 C-79.32742187 103.41347656 -79.65484375 102.82695313 -79.9921875 102.22265625 C-83.99045854 93.40476391 -83.33567684 80.6666484 -84.125 71.125 C-84.21265625 70.07997314 -84.3003125 69.03494629 -84.390625 67.95825195 C-84.84123778 62.23610557 -85.07175894 56.59868189 -84.93310547 50.85888672 C-84.78926287 48.98366392 -84.78926287 48.98366392 -86 48 C-86.24435961 43.72889013 -86.22861907 39.45165233 -86.24023438 35.17431641 C-86.24983664 33.03637218 -86.28079347 30.89943274 -86.3125 28.76171875 C-86.36925855 21.25111004 -85.95463458 14.96671733 -83 8 C-75.84527251 7.07023962 -68.67817563 6.28847615 -61.5 5.5625 C-60.84913422 5.49652618 -60.19826843 5.43055237 -59.52767944 5.36257935 C-45.379974 3.95140862 -31.20879164 3.27370867 -17.00390625 2.73461914 C-16.16824631 2.69962311 -15.33258636 2.66462708 -14.47160339 2.62857056 C-12.90136287 2.56291087 -11.33079199 2.50458317 -9.75996399 2.45492554 C-5.97933661 2.29151669 -3.29892649 1.83991008 0 0 Z M-21.8125 12.375 C-23.9171535 12.51434483 -26.02180845 12.65366763 -28.12646484 12.79296875 C-32.2347953 13.06629947 -36.34282894 13.34363726 -40.45068359 13.62402344 C-43.81257006 13.85323484 -47.17462957 14.0772901 -50.53759766 14.29003906 C-54.06772123 14.51432747 -57.59636458 14.75359378 -61.125 15 C-62.09284424 15.05849121 -63.06068848 15.11698242 -64.05786133 15.17724609 C-68.75757736 15.52962691 -72.20755494 15.93062813 -76 19 C-78.81187295 23.21780943 -78.38239629 26.64688868 -78.375 31.625 C-78.37483887 32.66229248 -78.37467773 33.69958496 -78.37451172 34.76831055 C-78.2075715 47.48124725 -77.1404319 60.14475162 -76.125 72.8125 C-76.03804871 73.92336975 -75.95109741 75.0342395 -75.86151123 76.17877197 C-75.60801012 79.37663625 -75.34167166 82.57313777 -75.0703125 85.76953125 C-74.95450836 87.2274836 -74.95450836 87.2274836 -74.83636475 88.71488953 C-74.75646301 89.61568741 -74.67656128 90.51648529 -74.59423828 91.44458008 C-74.52761993 92.23077225 -74.46100159 93.01696442 -74.3923645 93.82698059 C-73.95639252 96.24150989 -73.33348251 97.93921325 -72 100 C-68.48514809 101.1716173 -65.70956611 101.12954045 -62 101.1328125 C-60.95140305 101.13492737 -60.95140305 101.13492737 -59.88162231 101.13708496 C-57.58769783 101.13923209 -55.29391073 101.13288734 -53 101.125 C-52.21268494 101.1234491 -51.42536987 101.12189819 -50.61419678 101.12030029 C-36.05847243 101.0867218 -21.53802429 100.74230561 -7 100 C-5.72141113 99.94086426 -4.44282227 99.88172852 -3.12548828 99.82080078 C0.8554666 99.63537251 4.83363701 99.4134871 8.8125 99.1875 C10.04145996 99.12965332 11.27041992 99.07180664 12.53662109 99.01220703 C21.06268604 98.50964096 21.06268604 98.50964096 28 94 C31.90426444 82.28720667 28.79665936 67.10777398 27.5625 55 C27.4951062 54.33471283 27.4277124 53.66942566 27.35827637 52.98397827 C26.56927204 44.92504552 26.56927204 44.92504552 25 37 C24.80925281 33.67252131 24.6568474 30.35112508 24.5703125 27.01953125 C24.32155587 21.51579083 23.02599225 17.44807396 19.5 13.1875 C11.05370423 6.50084919 -11.60969765 11.69034277 -21.8125 12.375 Z M24 107 C28 108 28 108 28 108 Z " fill="#ECE5DA" transform="translate(88,7)"/>
<path d="M0 0 C0.99 0.495 0.99 0.495 2 1 C2 1.33 2 1.66 2 2 C10.25 2.33 18.5 2.66 27 3 C32.07122076 13.14244152 33.98544712 22.97268174 35.1875 34.125 C35.3565909 35.60732617 35.52627235 37.0895851 35.6965332 38.57177734 C36.66854292 47.18212632 37.48427158 55.78221551 37.84765625 64.44140625 C38.00688609 68.16085203 38.314906 71.852857 38.625 75.5625 C39.28542418 85.53277476 39.97029735 96.07139883 35 105 C34.505 106.485 34.505 106.485 34 108 C25.44279239 108.86032967 17.04288045 109.09089851 8.44995117 108.875 C2.95200493 108.76168853 2.95200493 108.76168853 -2 111 C-2.33 111 -2.66 111 -3 111 C-5.06310088 111.28901198 -7.12570765 111.58068271 -9.1875 111.87890625 C-10.0846875 111.93884766 -10.0846875 111.93884766 -11 112 C-11.33 111.67 -11.66 111.34 -12 111 C-14.63330432 110.97062662 -17.23658684 111.0045978 -19.8671875 111.0859375 C-20.65771515 111.10717682 -21.4482428 111.12841614 -22.26272583 111.15029907 C-23.93905638 111.19665084 -25.61531715 111.24558606 -27.29150391 111.296875 C-29.85694928 111.37445415 -32.42251686 111.44173285 -34.98828125 111.5078125 C-36.6146011 111.55406701 -38.24090399 111.60092234 -39.8671875 111.6484375 C-40.63602264 111.66828705 -41.40485779 111.6881366 -42.19699097 111.70858765 C-45.36431486 111.81091144 -47.97504943 111.99168314 -51 113 C-51.99 112.505 -51.99 112.505 -53 112 C-56.54270847 111.92896825 -60.07443327 112.00333083 -63.6171875 112.0625 C-66.37352109 112.01157467 -68.38318857 111.68158809 -71 111 C-71.99 111.495 -71.99 111.495 -73 112 C-75 111.4375 -75 111.4375 -77 110 C-78.125 107.125 -78.125 107.125 -79 104 C-79.32742187 103.41347656 -79.65484375 102.82695313 -79.9921875 102.22265625 C-83.99045854 93.40476391 -83.33567684 80.6666484 -84.125 71.125 C-84.21265625 70.07997314 -84.3003125 69.03494629 -84.390625 67.95825195 C-84.84123778 62.23610557 -85.07175894 56.59868189 -84.93310547 50.85888672 C-84.78926287 48.98366392 -84.78926287 48.98366392 -86 48 C-86.08790975 45.70848583 -86.10694038 43.41427476 -86.09765625 41.12109375 C-86.0962413 40.4344313 -86.09482635 39.74776886 -86.09336853 39.04029846 C-86.08775479 36.83932199 -86.07520007 34.63844591 -86.0625 32.4375 C-86.05748676 30.94856917 -86.05292355 29.45963676 -86.04882812 27.97070312 C-86.03778093 24.31376925 -86.02050713 20.65689442 -86 17 C-85.67 17 -85.34 17 -85 17 C-83.41584741 28.33278393 -82.13265944 39.68299614 -80.9375 51.0625 C-80.59452313 54.32444247 -80.24909077 57.58611268 -79.90234375 60.84765625 C-79.82628403 61.57896255 -79.7502243 62.31026886 -79.67185974 63.06373596 C-79.34498076 66.13866304 -78.96926966 69.18289042 -78.45678711 72.23291016 C-78.05434428 74.67079742 -77.85027851 76.96057336 -77.7890625 79.42578125 C-77.76070312 80.22306641 -77.73234375 81.02035156 -77.703125 81.84179688 C-77.65141912 83.47699536 -77.60703816 85.11244338 -77.5703125 86.74804688 C-77.33592549 92.81769378 -76.96238899 100.19432949 -72.31181335 104.59887695 C-69.35021073 106.39381844 -67.43835765 106.36288846 -63.98608398 106.33911133 C-62.77010025 106.33634689 -61.55411652 106.33358246 -60.30128479 106.33073425 C-58.32490273 106.30043877 -58.32490273 106.30043877 -56.30859375 106.26953125 C-54.91980001 106.25741852 -53.53100061 106.24594042 -52.14219666 106.23506165 C-38.14630652 106.0944998 -24.16339725 105.55886836 -10.18432617 104.88305664 C-6.68788808 104.71449844 -3.1908868 104.56511481 0.30658627 104.41984844 C3.71407984 104.27483682 7.12060133 104.11091348 10.52734375 103.94921875 C11.76685287 103.89908127 13.006362 103.84894379 14.28343201 103.79728699 C24.3423515 103.54041723 24.3423515 103.54041723 33 99 C33.10095864 96.83262758 33.13082427 94.66190912 33.1328125 92.4921875 C33.13499535 91.4889167 33.13499535 91.4889167 33.13722229 90.46537781 C33.139484 88.26852947 33.13315674 86.07183313 33.125 83.875 C33.12217514 82.75337967 33.12217514 82.75337967 33.11929321 81.60910034 C33.06474374 63.18989212 32.87415372 45.08414267 29.36425781 26.94677734 C28.64639234 23.11014245 28.1046756 19.24268833 27.52734375 15.3828125 C26.96289611 12.8323454 26.54537853 11.11859015 25 9 C20.71164505 7.23853657 17.08206793 6.7525803 12.46875 6.76953125 C11.19862061 6.77065918 9.92849121 6.77178711 8.61987305 6.77294922 C7.24657563 6.78544855 5.87328446 6.79865054 4.5 6.8125 C3.06746573 6.82074628 1.63492984 6.82871713 0.20239258 6.83642578 C-26.23914946 7.0198366 -52.72079188 7.92448139 -79 11 C-79 10.01 -79 9.02 -79 8 C-62.67440073 5.27851431 -46.45908937 4.18600418 -29.9375 3.4375 C-25.11271969 3.21731336 -20.28872258 2.98512348 -15.46484375 2.74609375 C-13.82285255 2.67726234 -13.82285255 2.67726234 -12.14768982 2.60704041 C-11.13465286 2.55681229 -10.12161591 2.50658417 -9.07788086 2.45483398 C-7.74725868 2.39512672 -7.74725868 2.39512672 -6.38975525 2.33421326 C-3.88205101 1.98350454 -2.23890124 1.12596142 0 0 Z M24 107 C28 108 28 108 28 108 Z " fill="#6D523F" transform="translate(88,7)"/>
<path d="M0 0 C2.64 0 5.28 0 8 0 C8 0.99 8 1.98 8 3 C8.66 2.67 9.32 2.34 10 2 C14.12416051 1.53311391 16.23633357 1.46720947 19.6875 3.875 C25.58598985 11.84593222 26.62025706 19.91786878 26.75 29.625 C26.77964844 30.72457031 26.80929688 31.82414062 26.83984375 32.95703125 C26.90978444 35.63809105 26.96285229 38.31831979 27 41 C25.10546875 41.56640625 25.10546875 41.56640625 23 42 C20.49427575 40.42232177 20.04533995 39.177238 19.3125 36.3125 C18.95342844 32.50634145 18.93410304 28.82202339 19 25 C14.05 25.495 14.05 25.495 9 26 C9.04125 27.5675 9.0825 29.135 9.125 30.75 C9.22266247 34.46117397 8.90608098 36.78817851 7 40 C1.25 40.125 1.25 40.125 -1 39 C-1.02467917 33.76725612 -1.04285003 28.53454597 -1.05493164 23.30175781 C-1.05996711 21.52082733 -1.06679581 19.739901 -1.07543945 17.95898438 C-1.08753942 15.40233335 -1.09323609 12.84573688 -1.09765625 10.2890625 C-1.10281754 9.49005524 -1.10797882 8.69104797 -1.11329651 7.86782837 C-1.11387171 2.22774341 -1.11387171 2.22774341 0 0 Z " fill="#6D513C" transform="translate(42,41)"/>
<path d="M0 0 C3.91764188 4.47730501 4.15810384 8.43399837 4.4375 14.25 C4.79914019 20.90463064 5.53646692 27.43591684 6.45703125 34.0390625 C8.00153153 45.30613646 9.18518209 56.49257057 9.3125 67.875 C9.33006348 68.71313232 9.34762695 69.55126465 9.36572266 70.41479492 C9.36096741 75.0697085 9.12501451 78.28948616 6 82 C2.77076097 84.01725877 -0.01791589 84.35090156 -3.78515625 84.59765625 C-4.94112305 84.6764502 -6.09708984 84.75524414 -7.28808594 84.83642578 C-8.53364258 84.91103027 -9.77919922 84.98563477 -11.0625 85.0625 C-12.3609082 85.14483887 -13.65931641 85.22717773 -14.99707031 85.31201172 C-39.00700037 86.80447046 -62.95377223 87.14671969 -87 87 C-87 86.67 -87 86.34 -87 86 C-79.53763999 85.58727237 -72.07504962 85.17890082 -64.61230469 84.77319336 C-62.08751357 84.63546297 -59.56277153 84.49682918 -57.03808594 84.35717773 C-53.3536486 84.15354862 -49.66906869 83.95284125 -45.984375 83.75390625 C-44.14268738 83.65403915 -44.14268738 83.65403915 -42.26379395 83.55215454 C-35.91314951 83.21886235 -29.56560008 82.94029786 -23.20898438 82.74951172 C-21.3189267 82.69197975 -21.3189267 82.69197975 -19.39068604 82.63328552 C-17.00528323 82.5647541 -14.61964714 82.50375031 -12.23382568 82.45179749 C-5.88353045 82.27215977 -0.15172428 81.60520289 6 80 C6.76962171 63.29065752 5.4331211 46.98321106 3.6875 30.375 C3.5807193 29.32504852 3.4739386 28.27509705 3.36392212 27.19332886 C3.05166305 24.15590516 2.7223884 21.12085445 2.38671875 18.0859375 C2.29280853 17.17319565 2.19889832 16.2604538 2.10214233 15.3200531 C1.48932459 10.03878793 0.56216601 5.69294094 -2 1 C-5.81404189 -0.2713473 -9.33155691 -0.0533552 -13.296875 0.05078125 C-14.53561371 0.07908272 -14.53561371 0.07908272 -15.79937744 0.10795593 C-17.55463328 0.14986716 -19.30982348 0.19460749 -21.06494141 0.24194336 C-23.69811669 0.31113664 -26.33131469 0.36614098 -28.96484375 0.41992188 C-38.02036977 0.6343695 -46.80781862 1.21061979 -55.77441406 2.54321289 C-60.01419551 3.14362396 -64.22453834 3.40138426 -68.5 3.5625 C-73.7398099 3.77928791 -78.80216311 4.25131511 -84 5 C-85.8115721 5.0616181 -87.62505032 5.08732808 -89.4375 5.0625 C-90.73494141 5.04896484 -90.73494141 5.04896484 -92.05859375 5.03515625 C-92.69925781 5.02355469 -93.33992188 5.01195312 -94 5 C-95.03617283 8.1085185 -95.12911609 10.27207209 -95.1328125 13.53125 C-95.13498779 14.64218018 -95.13716309 15.75311035 -95.1394043 16.89770508 C-95.13465088 18.0864624 -95.12989746 19.27521973 -95.125 20.5 C-95.12089111 21.72162842 -95.11678223 22.94325684 -95.11254883 24.2019043 C-94.99308798 43.75366282 -93.31450895 62.7184816 -90 82 C-90.66 81.67 -91.32 81.34 -92 81 C-95.00173438 71.19926788 -95.84792919 60.8568862 -96.6875 50.6875 C-96.74970734 49.95608795 -96.81191467 49.2246759 -96.87600708 48.47109985 C-97.7088947 38.55174915 -98.32174472 28.64469423 -98.4375 18.6875 C-98.45965576 17.66938232 -98.48181152 16.65126465 -98.50463867 15.60229492 C-98.4915246 11.24280128 -98.41644788 8.70292158 -96.16015625 4.89453125 C-93.01733587 2.1381698 -90.23385542 1.84479826 -86.20336914 1.53515625 C-85.22707047 1.45837646 -84.25077179 1.38159668 -83.24488831 1.30249023 C-81.65607094 1.18369507 -81.65607094 1.18369507 -80.03515625 1.0625 C-78.93264023 0.97750244 -77.83012421 0.89250488 -76.69419861 0.80493164 C-74.3481119 0.62495209 -72.00187931 0.44686572 -69.65551758 0.27050781 C-66.13519177 0.00547275 -62.61543548 -0.2662727 -59.09570312 -0.5390625 C-6.35072724 -4.58231108 -6.35072724 -4.58231108 0 0 Z " fill="#9F7753" transform="translate(108,21)"/>
<path d="M0 0 C0.99 0.495 0.99 0.495 2 1 C2 1.33 2 1.66 2 2 C10.25 2.33 18.5 2.66 27 3 C31.7072588 12.41451759 33.75216988 21.23376205 34.75 31.6875 C34.87503906 32.87794922 35.00007813 34.06839844 35.12890625 35.29492188 C35.43178574 38.19557543 35.72189559 41.09688473 36 44 C35.34 44 34.68 44 34 44 C33.01 41.03 33.01 41.03 32 38 C31.67 38 31.34 38 31 38 C30.92483154 37.3702124 30.84966309 36.7404248 30.7722168 36.09155273 C30.42149228 33.20543198 30.05463087 30.32157781 29.6875 27.4375 C29.51057617 25.9515332 29.51057617 25.9515332 29.33007812 24.43554688 C28.60563881 18.84436139 27.95580217 13.86108746 25 9 C20.74591271 7.1621605 17.07141285 6.75261945 12.46875 6.76953125 C11.19862061 6.77065918 9.92849121 6.77178711 8.61987305 6.77294922 C7.24657563 6.78544855 5.87328446 6.79865054 4.5 6.8125 C3.06746573 6.82074628 1.63492984 6.82871713 0.20239258 6.83642578 C-26.23914946 7.0198366 -52.72079188 7.92448139 -79 11 C-79 10.01 -79 9.02 -79 8 C-62.67440073 5.27851431 -46.45908937 4.18600418 -29.9375 3.4375 C-25.11271969 3.21731336 -20.28872258 2.98512348 -15.46484375 2.74609375 C-13.82285255 2.67726234 -13.82285255 2.67726234 -12.14768982 2.60704041 C-11.13465286 2.55681229 -10.12161591 2.50658417 -9.07788086 2.45483398 C-7.74725868 2.39512672 -7.74725868 2.39512672 -6.38975525 2.33421326 C-3.88205101 1.98350454 -2.23890124 1.12596142 0 0 Z " fill="#6D523F" transform="translate(88,7)"/>
<path d="M0 0 C3.625 0.375 3.625 0.375 7 1 C7.04898438 1.82242188 7.09796875 2.64484375 7.1484375 3.4921875 C7.12391009 14.90438293 7.12391009 14.90438293 11 25 C11.23880597 32.52238806 11.23880597 32.52238806 10 35 C5.48453359 35.3661189 5.48453359 35.3661189 3.43359375 33.81640625 C-2.68913498 26.05872543 -2.84162561 11.40053007 -2 2 C-1.34 1.34 -0.68 0.68 0 0 Z " fill="#6F533D" transform="translate(73,47)"/>
<path d="M0 0 C-0.33 0.66 -0.66 1.32 -1 2 C-1.99 2 -2.98 2 -4 2 C-4 2.66 -4 3.32 -4 4 C-4.76739502 4.01981934 -5.53479004 4.03963867 -6.32543945 4.06005859 C-27.60207134 4.63198558 -48.84484531 5.52416162 -70 8 C-70 7.01 -70 6.02 -70 5 C-57.06119611 2.74585298 -44.16235412 1.54550709 -31.0625 0.8125 C-30.32236664 0.76998108 -29.58223328 0.72746216 -28.81967163 0.68365479 C-19.20182608 0.14045111 -9.63554831 -0.11176357 0 0 Z " fill="#826A59" transform="translate(79,10)"/>
<path d="M0 0 C0 0.33 0 0.66 0 1 C-1.21816406 1.06058594 -2.43632813 1.12117188 -3.69140625 1.18359375 C-5.31511277 1.26806403 -6.93881022 1.35270872 -8.5625 1.4375 C-9.36236328 1.47681641 -10.16222656 1.51613281 -10.98632812 1.55664062 C-15.71281343 1.80743372 -20.31206511 2.32385554 -25 3 C-26.8115721 3.0616181 -28.62505032 3.08732808 -30.4375 3.0625 C-31.73494141 3.04896484 -31.73494141 3.04896484 -33.05859375 3.03515625 C-33.69925781 3.02355469 -34.33992188 3.01195312 -35 3 C-36.03617283 6.1085185 -36.12911609 8.27207209 -36.1328125 11.53125 C-36.13498779 12.64218018 -36.13716309 13.75311035 -36.1394043 14.89770508 C-36.13465088 16.0864624 -36.12989746 17.27521973 -36.125 18.5 C-36.12089111 19.72162842 -36.11678223 20.94325684 -36.11254883 22.2019043 C-35.99308798 41.75366282 -34.31450895 60.7184816 -31 80 C-31.66 79.67 -32.32 79.34 -33 79 C-36.00173438 69.19926788 -36.84792919 58.8568862 -37.6875 48.6875 C-37.74970734 47.95608795 -37.81191467 47.2246759 -37.87600708 46.47109985 C-38.7088947 36.55174915 -39.32174472 26.64469423 -39.4375 16.6875 C-39.45965576 15.66938232 -39.48181152 14.65126465 -39.50463867 13.60229492 C-39.4915246 9.24280128 -39.41644788 6.70292158 -37.16015625 2.89453125 C-28.57873738 -4.63166794 -10.53546308 -0.64700449 0 0 Z " fill="#AA8358" transform="translate(49,23)"/>
<path d="M0 0 C0 0.33 0 0.66 0 1 C-7.34901209 1.82921845 -14.67292648 2.29258908 -22.0625 2.5625 C-23.20050049 2.6049585 -24.33850098 2.64741699 -25.51098633 2.69116211 C-40.33669727 3.18571734 -55.16830955 3.09049656 -70 3 C-70 2.67 -70 2.34 -70 2 C-62.2817873 1.54179017 -54.56284469 1.09783807 -46.84326172 0.66333008 C-44.22263457 0.51419263 -41.60218429 0.3619101 -38.98193359 0.20629883 C-35.19411808 -0.01808415 -31.40578978 -0.23077585 -27.6171875 -0.44140625 C-26.46451385 -0.51218887 -25.31184021 -0.5829715 -24.12423706 -0.65589905 C-16.00237391 -1.09195729 -8.09672915 -0.7470336 0 0 Z " fill="#AD8C6F" transform="translate(91,105)"/>
<path d="M0 0 C-0.33 0.66 -0.66 1.32 -1 2 C-1.99 2 -2.98 2 -4 2 C-4 2.66 -4 3.32 -4 4 C-24.295 3.505 -24.295 3.505 -45 3 C-45 2.67 -45 2.34 -45 2 C-40.84187135 1.70901612 -36.68335762 1.42454236 -32.52441406 1.14550781 C-31.1164211 1.05019161 -29.7085372 0.9532472 -28.30078125 0.85449219 C-18.84537549 0.19261378 -9.48374276 -0.13407215 0 0 Z " fill="#8C7666" transform="translate(79,10)"/>
<path d="M0 0 C2.21534678 3.32302018 2.43115652 5.06304935 2.8515625 8.98046875 C2.98046875 10.14384766 3.109375 11.30722656 3.2421875 12.50585938 C3.36851563 13.72080078 3.49484375 14.93574219 3.625 16.1875 C3.82609375 18.02731445 3.82609375 18.02731445 4.03125 19.90429688 C4.36149609 22.93548419 4.68409927 25.96728964 5 29 C4.34 29 3.68 29 3 29 C2.34 27.02 1.68 25.04 1 23 C0.67 23 0.34 23 0 23 C-0.33808686 20.93827387 -0.67027361 18.8755797 -1 16.8125 C-1.185625 15.66394531 -1.37125 14.51539063 -1.5625 13.33203125 C-1.93489477 10.49584607 -2.08596021 7.85280436 -2 5 C-1.34 5 -0.68 5 0 5 C0 3.35 0 1.7 0 0 Z " fill="#765B49" transform="translate(119,22)"/>
<path d="M0 0 C0.33 0 0.66 0 1 0 C2.78492423 12.68509259 4.22743133 25.16276495 4 38 C-2.02207055 31.7161003 -0.11998231 20.54752294 -0.0625 12.5 C-0.05798828 11.29601562 -0.05347656 10.09203125 -0.04882812 8.8515625 C-0.0371195 5.90098927 -0.02071995 2.95052141 0 0 Z " fill="#674B3A" transform="translate(2,24)"/>
<path d="M0 0 C0 0.33 0 0.66 0 1 C-1.21816406 1.06058594 -2.43632813 1.12117188 -3.69140625 1.18359375 C-5.31511277 1.26806403 -6.93881022 1.35270872 -8.5625 1.4375 C-9.36236328 1.47681641 -10.16222656 1.51613281 -10.98632812 1.55664062 C-15.71146354 1.8073621 -20.31604573 2.29798228 -25 3 C-27.73940411 3.19470145 -30.23928393 3.14037539 -33 3 C-33.66 2.34 -34.32 1.68 -35 1 C-23.97643996 -2.67452001 -11.39348561 -0.69969742 0 0 Z " fill="#B38F62" transform="translate(49,23)"/>
<path d="M0 0 C0.66 0.66 1.32 1.32 2 2 C3.98821313 2.39764263 5.98944339 2.73775349 8 3 C8 3.33 8 3.66 8 4 C2.98391475 5.0176403 -1.78608306 5.11856434 -6.875 5.0625 C-7.65875 5.05798828 -8.4425 5.05347656 -9.25 5.04882812 C-11.16670014 5.03714093 -13.08336048 5.01920908 -15 5 C-12.23124172 2.74959373 -9.76303909 1.36046097 -6.375 0.25 C-5.59898438 -0.01296875 -4.82296875 -0.2759375 -4.0234375 -0.546875 C-2 -1 -2 -1 0 0 Z " fill="#684C39" transform="translate(90,8)"/>
<path d="M0 0 C0.33 5.61 0.66 11.22 1 17 C-0.32 17 -1.64 17 -3 17 C-4.2225156 12.6620414 -4.48517747 8.48172413 -4 4 C-1.75609756 0 -1.75609756 0 0 0 Z " fill="#F1E8D2" transform="translate(14,88)"/>
<path d="M0 0 C10.23 0.33 20.46 0.66 31 1 C31 1.33 31 1.66 31 2 C19.31514365 2.76532392 7.70954775 3.13339991 -4 3 C-2.68 2.67 -1.36 2.34 0 2 C0 1.34 0 0.68 0 0 Z " fill="#674B38" transform="translate(32,12)"/>
<path d="M0 0 C0 0.33 0 0.66 0 1 C-10.80081229 2.31202926 -21.19017916 2.17088968 -32 1 C-32 0.67 -32 0.34 -32 0 C-10.46808511 -1.38297872 -10.46808511 -1.38297872 0 0 Z " fill="#AA855E" transform="translate(101,19)"/>
<path d="M0 0 C2 2 2 2 2.1953125 5.2578125 C2.17210937 6.53398438 2.14890625 7.81015625 2.125 9.125 C2.10695313 10.40632813 2.08890625 11.68765625 2.0703125 13.0078125 C2.04710937 13.99523437 2.02390625 14.98265625 2 16 C1.01 16 0.02 16 -1 16 C-1.02712153 14.083412 -1.04645097 12.1667127 -1.0625 10.25 C-1.07410156 9.18265625 -1.08570313 8.1153125 -1.09765625 7.015625 C-1.01510087 4.46631499 -0.74617558 2.42066409 0 0 Z " fill="#F1EBE1" transform="translate(11,76)"/>
<path d="M0 0 C1.32 0.33 2.64 0.66 4 1 C4 1.99 4 2.98 4 4 C3.360625 4.4125 2.72125 4.825 2.0625 5.25 C-0.38836869 6.96399307 -0.38836869 6.96399307 -0.75 10.6875 C-0.8325 11.780625 -0.915 12.87375 -1 14 C-1.33 14 -1.66 14 -2 14 C-2.05437607 12.41705218 -2.09296271 10.83355744 -2.125 9.25 C-2.14820313 8.36828125 -2.17140625 7.4865625 -2.1953125 6.578125 C-1.99139502 3.8864142 -1.36551721 2.30095026 0 0 Z " fill="#C6BAAE" transform="translate(5,15)"/>
<path d="M0 0 C0.66 1.32 1.32 2.64 2 4 C2.66 3.67 3.32 3.34 4 3 C4 4.98 4 6.96 4 9 C3.01 9 2.02 9 1 9 C1 10.98 1 12.96 1 15 C0.67 15 0.34 15 0 15 C0 10.05 0 5.1 0 0 Z " fill="#E1C477" transform="translate(68,58)"/>
<path d="M0 0 C3 3.625 3 3.625 3 7 C1.35 7 -0.3 7 -2 7 C-1.125 1.125 -1.125 1.125 0 0 Z " fill="#ECD17E" transform="translate(55,52)"/>
<path d="M0 0 C6.93 0 13.86 0 21 0 C21 0.33 21 0.66 21 1 C14.07 1 7.14 1 0 1 C0 0.67 0 0.34 0 0 Z " fill="#A89A8E" transform="translate(44,9)"/>
<path d="M0 0 C2 2 2 2 2.3125 5.5 C2.209375 6.655 2.10625 7.81 2 9 C1.01 9.66 0.02 10.32 -1 11 C-1.0270043 9.54176788 -1.04639787 8.08339325 -1.0625 6.625 C-1.07410156 5.81289062 -1.08570313 5.00078125 -1.09765625 4.1640625 C-1 2 -1 2 0 0 Z " fill="#DED5CB" transform="translate(11,90)"/>
<path d="M0 0 C0.33 0.66 0.66 1.32 1 2 C-3.455 2.495 -3.455 2.495 -8 3 C-8 2.01 -8 1.02 -8 0 C-4.97878489 -0.97110486 -2.99536737 -1.13617383 0 0 Z " fill="#937E6F" transform="translate(17,15)"/>
<path d="M0 0 C6.27 0 12.54 0 19 0 C19 0.33 19 0.66 19 1 C12.73 1 6.46 1 0 1 C0 0.67 0 0.34 0 0 Z " fill="#6A4E3B" transform="translate(90,116)"/>
<path d="M0 0 C6.27 0 12.54 0 19 0 C19 0.33 19 0.66 19 1 C12.73 1 6.46 1 0 1 C0 0.67 0 0.34 0 0 Z " fill="#6E5340" transform="translate(92,8)"/>
<path d="M0 0 C5.94 0 11.88 0 18 0 C18 0.33 18 0.66 18 1 C12.06 1 6.12 1 0 1 C0 0.67 0 0.34 0 0 Z " fill="#6A4E3B" transform="translate(46,119)"/>
<path d="M0 0 C1.98 0.99 1.98 0.99 4 2 C4 3.98 4 5.96 4 8 C3.34 7.67 2.68 7.34 2 7 C1.26924352 4.6859378 0.59861742 2.35171131 0 0 Z " fill="#7D6757" transform="translate(113,10)"/>
<path d="M0 0 C0.33 0 0.66 0 1 0 C1 5.61 1 11.22 1 17 C0.67 17 0.34 17 0 17 C0 11.39 0 5.78 0 0 Z " fill="#6A4E3B" transform="translate(127,90)"/>
<path d="M0 0 C5.61 0 11.22 0 17 0 C17 0.33 17 0.66 17 1 C11.39 1 5.78 1 0 1 C0 0.67 0 0.34 0 0 Z " fill="#725845" transform="translate(65,8)"/>
<path d="M0 0 C0.33 0 0.66 0 1 0 C1.22151549 1.79008467 1.42682213 3.58218162 1.625 5.375 C1.74101563 6.37273437 1.85703125 7.37046875 1.9765625 8.3984375 C1.98429688 9.25695312 1.99203125 10.11546875 2 11 C1.34 11.66 0.68 12.32 0 13 C0 8.71 0 4.42 0 0 Z " fill="#6A4E3B" transform="translate(3,77)"/>
<path d="M0 0 C0.33 0 0.66 0 1 0 C1 4.62 1 9.24 1 14 C0.67 14 0.34 14 0 14 C0 9.38 0 4.76 0 0 Z " fill="#6A4E3B" transform="translate(127,74)"/>
<path d="M0 0 C4.29 0 8.58 0 13 0 C13 0.33 13 0.66 13 1 C8.71 1 4.42 1 0 1 C0 0.67 0 0.34 0 0 Z " fill="#725849" transform="translate(30,10)"/>
<path d="M0 0 C3.96 0 7.92 0 12 0 C12 0.33 12 0.66 12 1 C8.04 1 4.08 1 0 1 C0 0.67 0 0.34 0 0 Z " fill="#6A4E3B" transform="translate(64,118)"/>
<path d="M0 0 C0.33 0 0.66 0 1 0 C1 3.3 1 6.6 1 10 C0.67 10 0.34 10 0 10 C0 6.7 0 3.4 0 0 Z " fill="#7F6A5B" transform="translate(124,40)"/>
<path d="M0 0 C0.33 0 0.66 0 1 0 C1 2.97 1 5.94 1 9 C0.67 9 0.34 9 0 9 C0 6.03 0 3.06 0 0 Z " fill="#6D523F" transform="translate(122,25)"/>
<path d="M0 0 C0.33 0 0.66 0 1 0 C1 2.97 1 5.94 1 9 C0.67 9 0.34 9 0 9 C0 6.03 0 3.06 0 0 Z " fill="#816957" transform="translate(0,23)"/>
<path d="M0 0 C2.97 0 5.94 0 9 0 C9 0.33 9 0.66 9 1 C6.03 1 3.06 1 0 1 C0 0.67 0 0.34 0 0 Z " fill="#917C6C" transform="translate(20,11)"/>
<path d="M0 0 C0.33 0 0.66 0 1 0 C1 2.31 1 4.62 1 7 C0.67 7 0.34 7 0 7 C0 4.69 0 2.38 0 0 Z " fill="#6A4E3B" transform="translate(126,67)"/>
<path d="M0 0 C0.33 0 0.66 0 1 0 C1 2.31 1 4.62 1 7 C0.67 7 0.34 7 0 7 C0 4.69 0 2.38 0 0 Z " fill="#6C503D" transform="translate(125,50)"/>
<path d="M0 0 C0.33 0 0.66 0 1 0 C1 2.31 1 4.62 1 7 C0.67 7 0.34 7 0 7 C0 4.69 0 2.38 0 0 Z " fill="#6A4E3B" transform="translate(1,43)"/>
<path d="M0 0 C2.31 0 4.62 0 7 0 C7 0.33 7 0.66 7 1 C4.69 1 2.38 1 0 1 C0 0.67 0 0.34 0 0 Z " fill="#756153" transform="translate(13,12)"/>
<path d="M0 0 C1.98 0 3.96 0 6 0 C6 0.33 6 0.66 6 1 C4.02 1 2.04 1 0 1 C0 0.67 0 0.34 0 0 Z " fill="#6A4E3B" transform="translate(21,120)"/>
<path d="M0 0 C0.33 0 0.66 0 1 0 C1 1.98 1 3.96 1 6 C0.67 6 0.34 6 0 6 C0 4.02 0 2.04 0 0 Z " fill="#6A4E3B" transform="translate(4,95)"/>
<path d="M0 0 C0.33 0 0.66 0 1 0 C1 1.98 1 3.96 1 6 C0.67 6 0.34 6 0 6 C0 4.02 0 2.04 0 0 Z " fill="#6A4E3B" transform="translate(1,60)"/>
<path d="M0 0 C0.33 0 0.66 0 1 0 C1 1.98 1 3.96 1 6 C0.67 6 0.34 6 0 6 C0 4.02 0 2.04 0 0 Z " fill="#6A4E3B" transform="translate(125,58)"/>
<path d="M0 0 C0.33 0 0.66 0 1 0 C1 1.98 1 3.96 1 6 C0.67 6 0.34 6 0 6 C0 4.02 0 2.04 0 0 Z " fill="#705543" transform="translate(123,34)"/>
<path d="M0 0 C1.65 0 3.3 0 5 0 C5 0.33 5 0.66 5 1 C3.35 1 1.7 1 0 1 C0 0.67 0 0.34 0 0 Z " fill="#6A4E3B" transform="translate(40,119)"/>
<path d="M0 0 C0.33 0 0.66 0 1 0 C1 1.65 1 3.3 1 5 C0.67 5 0.34 5 0 5 C0 3.35 0 1.7 0 0 Z " fill="#79604F" transform="translate(121,20)"/>
<path d="M0 0 C4 1 4 1 4 1 Z " fill="#6A4E3B" transform="translate(28,119)"/>
<path d="M0 0 C4 1 4 1 4 1 Z " fill="#6A4E3B" transform="translate(17,119)"/>
<path d="M0 0 C1 4 1 4 1 4 Z " fill="#6A4E3B" transform="translate(3,91)"/>
<path d="M0 0 C1 4 1 4 1 4 Z " fill="#6A4E3B" transform="translate(0,39)"/>
<path d="M0 0 C1 4 1 4 1 4 Z " fill="#694D3A" transform="translate(0,34)"/>
<path d="M0 0 C1 4 1 4 1 4 Z " fill="#E9E1D7" transform="translate(1,19)"/>
<path d="M0 0 C4 1 4 1 4 1 Z " fill="#8D7766" transform="translate(9,13)"/>
<path d="" fill="#6A4E3B" transform="translate(0,0)"/>
<path d="" fill="#6A4E3B" transform="translate(0,0)"/>
<path d="M0 0 C3 1 3 1 3 1 Z " fill="#6A4E3B" transform="translate(84,7)"/>
<path d="M0 0 C2 1 2 1 2 1 Z " fill="#6A4E3B" transform="translate(35,120)"/>
<path d="M0 0 C2 1 2 1 2 1 Z " fill="#6A4E3B" transform="translate(33,119)"/>
<path d="M0 0 C2 1 2 1 2 1 Z " fill="#6A4E3B" transform="translate(88,117)"/>
<path d="M0 0 C2 1 2 1 2 1 Z " fill="#6A4E3B" transform="translate(120,116)"/>
<path d="" fill="#6A4E3B" transform="translate(0,0)"/>
<path d="" fill="#6A4E3B" transform="translate(0,0)"/>
<path d="" fill="#6A4E3B" transform="translate(0,0)"/>
<path d="" fill="#6A4E3B" transform="translate(0,0)"/>
<path d="" fill="#6A4E3B" transform="translate(0,0)"/>
<path d="" fill="#6A4E3B" transform="translate(0,0)"/>
<path d="" fill="#6A4E3B" transform="translate(0,0)"/>
<path d="" fill="#6A4E3B" transform="translate(0,0)"/>
<path d="" fill="#6A4E3B" transform="translate(0,0)"/>
<path d="" fill="#6A4E3B" transform="translate(0,0)"/>
<path d="" fill="#6A4E3B" transform="translate(0,0)"/>
<path d="" fill="#2F2117" transform="translate(0,0)"/>
<path d="" fill="#785F4D" transform="translate(0,0)"/>
<path d="" fill="#533223" transform="translate(0,0)"/>
<path d="" fill="#795F4E" transform="translate(0,0)"/>
<path d="M0 0 C2 1 2 1 2 1 Z " fill="#CBBFB2" transform="translate(7,14)"/>
<path d="M0 0 C2 1 2 1 2 1 Z " fill="#6C503D" transform="translate(111,9)"/>
<path d="" fill="#6A4E3B" transform="translate(0,0)"/>
<path d="" fill="#6A4E3B" transform="translate(0,0)"/>
<path d="" fill="#6A4E3B" transform="translate(0,0)"/>
<path d="" fill="#6A4E3B" transform="translate(0,0)"/>
<path d="" fill="#6A4E3B" transform="translate(0,0)"/>
<path d="" fill="#6A4E3B" transform="translate(0,0)"/>
<path d="" fill="#6A4E3B" transform="translate(0,0)"/>
<path d="" fill="#6A4E3B" transform="translate(0,0)"/>
<path d="" fill="#6A4E3B" transform="translate(0,0)"/>
<path d="" fill="#6A4E3B" transform="translate(0,0)"/>
<path d="" fill="#6A4E3B" transform="translate(0,0)"/>
<path d="" fill="#715643" transform="translate(0,0)"/>
<path d="" fill="#F3EDE3" transform="translate(0,0)"/>
<path d="" fill="#F6F1E8" transform="translate(0,0)"/>
<path d="" fill="#7F6655" transform="translate(0,0)"/>
</svg>
